<?xml version="1.0" standalone="no"?>
<!DOCTYPE svg PUBLIC "-//W3C//DTD SVG 20010904//EN"
 "http://www.w3.org/TR/2001/REC-SVG-20010904/DTD/svg10.dtd">
<svg version="1.0" xmlns="http://www.w3.org/2000/svg"
 width="512.000000pt" height="512.000000pt" viewBox="0 0 512.000000 512.000000"
 preserveAspectRatio="xMidYMid meet">
<metadata>
Created by potrace 1.11, written by Peter Selinger 2001-2013
</metadata>
<g transform="translate(0.000000,512.000000) scale(0.100000,-0.100000)"
fill="#000000" stroke="none">
<path d="M2557 5027 c-7 -19 3 -31 39 -46 18 -7 44 -26 60 -42 29 -31 74 -39
74 -14 0 20 -57 83 -91 101 -35 18 -75 18 -82 1z"/>
<path d="M2222 5001 c-8 -5 -12 -17 -10 -27 3 -16 16 -20 73 -25 89 -8 180
-34 227 -65 45 -29 105 -115 129 -187 13 -37 23 -52 36 -52 32 0 26 46 -20
140 -68 138 -110 167 -294 204 -113 23 -122 24 -141 12z"/>
<path d="M1563 4788 c-27 -24 -74 -63 -106 -87 -43 -32 -57 -48 -55 -63 2 -12
8 -23 14 -25 6 -2 46 25 89 59 43 35 95 76 117 91 43 31 47 60 11 65 -15 2
-38 -11 -70 -40z"/>
<path d="M1951 4789 c-128 -27 -239 -71 -313 -126 -34 -25 -91 -61 -127 -80
-85 -44 -143 -89 -276 -213 -60 -57 -129 -119 -153 -139 -24 -20 -92 -94 -150
-165 -66 -79 -146 -161 -207 -213 -55 -46 -153 -141 -217 -209 -159 -170 -153
-147 -139 -512 5 -158 15 -306 22 -329 10 -40 10 -45 -15 -73 -14 -17 -34 -59
-45 -93 -11 -34 -26 -79 -35 -99 -9 -21 -16 -53 -16 -72 0 -20 -14 -76 -31
-126 -34 -98 -34 -86 -5 -314 21 -176 44 -293 66 -343 16 -36 29 -47 88 -77
128 -64 183 -78 337 -84 129 -4 148 -2 236 22 53 14 109 26 123 26 36 0 92
-30 201 -105 50 -34 128 -84 175 -111 47 -27 128 -77 180 -113 52 -35 163 -97
245 -136 83 -40 193 -99 245 -132 84 -53 522 -277 700 -358 36 -16 94 -46 130
-67 36 -20 85 -42 110 -47 25 -6 76 -22 113 -35 85 -31 201 -56 263 -56 56 0
277 36 319 52 59 23 339 226 447 324 70 65 305 232 350 249 8 3 21 36 30 74
13 56 93 289 103 299 1 1 2 -29 1 -67 -1 -55 3 -74 16 -88 31 -31 39 -4 40
148 0 135 5 198 23 327 7 45 5 52 -9 52 -11 0 -25 -17 -37 -45 -11 -25 -22
-45 -23 -45 -2 0 -4 25 -5 55 0 34 -12 89 -29 140 l-30 85 33 0 c18 0 37 6 43
13 6 8 9 123 8 323 l-2 310 -38 80 c-80 163 -146 224 -471 434 -110 72 -243
161 -295 200 -52 38 -147 102 -210 141 -185 116 -243 153 -552 360 -161 108
-338 222 -393 254 -110 64 -187 119 -224 158 -33 36 -38 105 -16 217 23 117
12 164 -55 231 -111 111 -300 146 -529 98z m375 -118 c29 -12 65 -36 80 -52
27 -28 29 -35 28 -112 0 -45 -4 -119 -9 -164 -6 -60 -4 -90 5 -113 25 -60 161
-163 430 -325 80 -48 249 -158 375 -245 127 -87 271 -181 321 -209 51 -29 202
-127 337 -219 136 -92 304 -204 375 -250 230 -148 333 -265 313 -354 -29 -125
-136 -212 -332 -272 -110 -33 -150 -68 -290 -253 -80 -105 -113 -158 -139
-223 -55 -141 -87 -195 -135 -238 -97 -85 -176 -83 -370 7 -71 33 -157 78
-190 101 -33 23 -143 91 -245 151 -102 61 -201 122 -220 136 -19 14 -102 94
-185 177 -113 114 -190 180 -314 271 -90 66 -207 154 -260 196 -131 103 -175
132 -283 185 -51 26 -126 69 -167 96 -41 27 -85 51 -98 54 -51 13 -130 -2
-209 -41 -68 -32 -91 -39 -164 -43 -98 -5 -206 9 -300 40 -107 34 -186 131
-210 257 -15 78 -12 166 5 209 18 42 157 186 324 335 67 60 153 150 207 218
51 63 112 132 136 151 24 20 91 83 149 140 58 56 130 118 160 136 30 18 113
70 184 114 233 145 309 169 515 165 104 -3 134 -7 176 -26z m-1826 -1722 c0
-5 -4 -9 -10 -9 -5 0 -10 7 -10 16 0 8 5 12 10 9 6 -3 10 -10 10 -16z m88 -66
c5 -10 12 -53 16 -97 5 -67 4 -77 -8 -67 -16 13 -21 35 -31 124 -6 57 4 76 23
40z m810 -217 c1 -117 -1 -206 -7 -206 -26 0 -32 37 -38 236 l-5 208 23 -16
c24 -15 24 -17 27 -222z m-218 157 c0 -27 3 -104 7 -172 l6 -124 -102 5 c-56
3 -104 8 -107 11 -11 10 -16 108 -9 163 6 53 7 54 39 54 l33 0 -5 -69 c-6 -92
2 -123 31 -119 29 4 35 38 29 162 -5 95 -4 99 19 117 43 33 59 25 59 -28z
m-487 -24 c4 -30 6 -76 5 -104 -3 -48 -4 -49 -17 -26 -7 13 -16 62 -19 109 -4
70 -3 84 9 80 8 -3 17 -27 22 -59z m95 -76 c2 -98 1 -112 -13 -107 -10 4 -15
20 -15 54 0 26 -3 75 -7 110 -6 57 -5 62 13 58 17 -3 19 -14 22 -115z m130 17
c2 -47 1 -99 -3 -116 -5 -27 -8 -30 -35 -26 l-30 4 0 115 0 114 33 -3 32 -3 3
-85z m694 8 c10 -17 12 -73 10 -220 -3 -211 -7 -222 -49 -175 -18 19 -19 29
-13 82 5 33 9 98 9 145 1 106 11 190 22 190 5 0 14 -10 21 -22z m-102 -2 c12
-15 9 -174 -6 -309 -6 -52 -9 -58 -28 -55 -17 2 -21 10 -20 38 1 19 2 104 3
188 1 142 2 152 20 152 10 0 24 -7 31 -14z m217 -68 c20 -19 23 -31 23 -92 0
-39 -5 -105 -10 -146 -6 -41 -11 -105 -11 -142 0 -38 -4 -68 -8 -68 -4 0 -19
13 -34 28 -24 25 -26 32 -17 62 6 19 10 105 10 192 0 146 4 188 18 188 3 0 16
-10 29 -22z m-1195 -60 c45 -31 48 -35 48 -79 0 -47 20 -85 93 -175 19 -23 44
-73 56 -112 31 -95 48 -112 114 -112 50 0 53 -2 73 -39 28 -51 26 -51 -128
-51 -116 0 -122 1 -180 32 -89 48 -152 109 -190 185 -42 86 -44 170 -5 286 15
43 29 82 32 88 11 17 39 9 87 -23z m1323 -36 l41 -37 -4 -222 -4 -223 -21 11
c-12 6 -34 23 -49 37 l-28 26 0 207 c0 196 3 240 19 239 3 -1 24 -18 46 -38z
m-966 -93 c79 -16 151 -29 160 -29 24 0 130 -128 137 -167 13 -68 27 -66 -254
-47 l-82 6 -34 71 c-18 40 -54 100 -80 135 -25 34 -46 65 -46 68 0 3 12 3 28
-1 15 -4 92 -20 171 -36z m1114 -16 c33 -23 38 -31 32 -52 -21 -87 -24 -120
-25 -248 0 -78 -4 -144 -9 -147 -5 -3 -21 4 -36 16 l-28 22 6 200 c4 111 7
209 7 219 0 23 7 22 53 -10z m-632 -123 c5 0 9 -24 9 -52 0 -86 19 -240 31
-255 6 -7 18 -13 25 -13 17 0 18 59 4 167 -5 40 -6 82 -2 93 8 21 8 21 35 -4
l26 -24 -5 -134 c-5 -113 -4 -136 10 -153 16 -20 16 -20 31 -1 11 15 15 48 15
135 0 92 3 113 13 103 8 -9 14 -63 17 -165 5 -144 6 -152 25 -152 19 0 20 9
26 127 3 70 8 130 11 134 4 3 19 -2 33 -12 l28 -18 -5 -131 c-5 -140 -4 -155
17 -155 22 0 28 37 20 131 -7 98 0 111 40 76 29 -24 44 -78 45 -160 0 -26 7
-64 15 -84 13 -30 17 -33 30 -23 18 15 19 70 3 139 -6 28 -9 54 -5 57 3 3 23
-6 45 -22 35 -25 43 -39 80 -150 40 -116 54 -204 32 -204 -5 0 -49 16 -97 36
-74 31 -102 37 -187 42 -56 3 -116 12 -135 19 -19 8 -82 60 -140 116 -88 85
-112 115 -146 182 -35 69 -40 87 -37 135 11 178 8 213 -21 264 -15 27 -27 50
-27 53 0 2 30 -19 66 -47 37 -27 71 -50 75 -50z m776 12 l43 -37 -15 -40 c-10
-29 -14 -86 -15 -202 0 -90 -4 -163 -9 -163 -4 0 -23 10 -42 23 -49 33 -55 69
-41 255 12 158 19 202 31 202 3 0 25 -17 48 -38z m2408 -42 c4 -34 2 -89 -5
-129 -8 -48 -8 -75 -1 -89 9 -17 5 -20 -28 -31 -21 -6 -41 -11 -45 -11 -3 0
-6 67 -6 148 l0 148 33 16 c17 9 35 14 39 12 3 -2 9 -31 13 -64z m-2271 -65
c36 -33 38 -36 30 -77 -5 -24 -8 -118 -6 -210 1 -93 0 -168 -4 -168 -3 0 -24
10 -45 22 -59 33 -66 66 -51 247 14 166 22 221 31 221 4 0 24 -16 45 -35z
m2333 -22 c-3 -10 -5 -2 -5 17 0 19 2 27 5 18 2 -10 2 -26 0 -35z m-302 -295
c-38 -32 -45 -23 -45 55 0 41 3 116 7 166 5 82 9 94 27 101 21 7 21 5 26 -149
5 -147 4 -157 -15 -173z m-98 116 c2 -133 -1 -184 -12 -210 -8 -19 -18 -34
-23 -34 -12 0 -27 295 -19 347 6 32 31 73 46 73 3 0 7 -79 8 -176z m-1813 90
c25 -24 27 -47 19 -253 l-8 -193 -25 20 c-21 17 -25 29 -28 97 -6 101 8 345
18 345 5 0 16 -7 24 -16z m2206 -29 c0 -23 -5 -35 -14 -35 -10 0 -11 7 -2 35
6 19 12 35 13 35 2 0 3 -16 3 -35z m-3445 13 c1 -2 5 -15 9 -30 5 -22 3 -28
-10 -28 -20 0 -104 51 -104 64 0 7 99 2 105 -6z m-778 -65 c-2 -16 -4 -5 -4
22 0 28 2 40 4 28 2 -13 2 -35 0 -50z m3722 -175 c1 -91 4 -120 16 -132 14
-14 10 -25 -46 -108 -121 -180 -237 -324 -292 -362 -77 -53 -219 -97 -337
-103 -116 -6 -177 11 -321 93 -53 30 -115 62 -138 71 l-41 16 -2 126 c0 69 -2
150 -3 179 -2 61 11 66 66 29 l34 -23 -4 -115 c-2 -99 0 -117 14 -129 15 -12
19 -12 32 5 12 16 13 38 8 108 -6 75 -4 87 9 87 9 0 69 -27 133 -59 207 -104
314 -122 425 -74 92 41 192 159 229 270 27 84 53 137 81 165 30 30 38 8 32
-92 -6 -99 4 -145 31 -145 32 0 40 62 26 213 -12 131 -12 133 11 170 l23 37 7
-55 c3 -30 6 -108 7 -172z m-3627 135 c20 -23 28 -83 29 -208 1 -96 9 -135 29
-135 32 0 41 98 21 219 -6 35 -8 68 -5 72 3 5 23 0 45 -12 l40 -20 -2 -135
c-1 -105 1 -138 12 -144 31 -20 39 9 39 147 l0 134 68 -3 67 -3 -3 -120 c-2
-91 0 -125 11 -139 39 -53 64 25 54 171 -5 82 -4 85 20 94 13 5 34 9 46 9 22
0 22 -2 15 -97 -4 -54 -10 -117 -14 -140 -5 -39 -4 -43 15 -43 34 0 52 51 58
160 5 92 5 98 -16 112 -22 15 -20 16 38 23 33 4 64 4 68 2 9 -6 -10 -180 -25
-240 -5 -19 -20 -38 -39 -50 -73 -42 -312 -63 -438 -37 -74 15 -131 42 -127
60 2 7 -4 61 -12 119 -20 136 -27 221 -17 221 4 0 15 -8 23 -17z m2067 -39
c12 -24 13 -51 3 -164 -6 -79 -7 -152 -2 -173 9 -43 1 -46 -41 -16 l-29 20 0
142 c0 78 3 166 7 195 6 51 7 52 27 39 12 -8 27 -27 35 -43z m108 -69 l43 -26
0 -195 0 -195 -44 33 c-37 28 -45 40 -50 77 -8 59 -8 331 1 331 3 0 26 -11 50
-25z m1863 7 c0 -5 5 -45 11 -90 12 -93 2 -188 -32 -276 -24 -65 -96 -149
-152 -177 -48 -25 -150 -36 -266 -29 l-84 5 101 134 c56 74 120 170 144 214
48 90 97 138 195 190 72 38 83 42 83 29z m-2168 -270 c40 -32 106 -82 146
-111 82 -58 350 -221 363 -221 5 0 9 -4 9 -10 0 -5 -19 -10 -42 -10 -64 0
-156 -22 -315 -75 -78 -26 -147 -44 -153 -40 -5 3 -10 13 -10 21 0 21 -36 89
-87 163 -24 35 -46 76 -49 90 -3 14 -23 64 -45 109 -39 82 -58 168 -59 266 l0
38 85 -80 c47 -44 117 -107 157 -140z m-1079 106 c4 -46 7 -101 7 -123 -1 -37
-2 -39 -15 -21 -11 15 -15 48 -15 123 0 57 4 103 9 103 4 0 11 -37 14 -82z
m1617 -176 l0 -193 -57 32 -58 32 3 166 c1 91 5 176 7 188 l5 23 50 -28 50
-27 0 -193z m-1480 36 c0 -54 -4 -98 -9 -98 -17 0 -50 51 -55 84 -3 17 -7 67
-11 111 l-5 79 40 -39 40 -39 0 -98z m-980 106 c0 -14 -3 -14 -15 -4 -8 7 -15
14 -15 16 0 2 7 4 15 4 8 0 15 -7 15 -16z m1072 -86 c12 -10 17 -36 20 -105
l4 -92 -26 15 c-24 15 -26 21 -28 105 -3 90 1 99 30 77z m122 -54 c13 -5 16
-21 15 -83 -1 -42 -4 -87 -8 -101 l-7 -25 -20 30 c-13 21 -20 51 -23 107 -3
82 1 88 43 72z m130 -124 c12 -134 5 -164 -35 -136 -21 14 -23 24 -25 103 -3
115 0 124 30 110 20 -10 24 -21 30 -77z m126 -114 c0 -80 3 -106 15 -116 12
-10 18 -10 31 1 14 11 15 27 10 96 -8 92 -5 96 49 63 l32 -20 -4 -97 c-2 -53
-6 -99 -9 -102 -3 -3 -45 14 -92 39 l-87 45 -8 105 c-9 130 -7 138 33 110 l30
-21 0 -103z m210 119 c14 -16 10 -18 -14 -9 -9 3 -16 10 -16 15 0 14 16 11 30
-6z m2417 -112 c-3 -10 -17 -70 -33 -133 -15 -63 -32 -118 -38 -122 -20 -14
-27 -8 -16 12 6 12 18 60 26 108 16 89 39 152 56 152 5 0 7 -8 5 -17z m-2391
-44 l34 -21 0 -87 c0 -48 -3 -90 -6 -94 -3 -3 -21 2 -40 10 l-34 17 0 98 c0
54 3 98 6 98 4 0 22 -9 40 -21z m2294 -28 c0 -5 -11 -43 -25 -85 -14 -42 -25
-91 -25 -109 0 -25 -7 -39 -30 -55 -38 -28 -43 -28 -36 6 4 15 7 68 8 119 l1
92 46 20 c53 23 61 24 61 12z m-2145 -169 c11 -44 14 -77 9 -82 -6 -6 -26 1
-53 16 -31 19 -40 29 -32 37 6 6 11 43 11 82 0 40 3 75 7 79 11 11 39 -52 58
-132z m1775 125 c0 -2 -41 -28 -90 -57 -92 -54 -174 -126 -242 -212 -93 -115
-322 -159 -544 -103 -78 19 -146 48 -321 137 -123 62 -223 118 -223 125 0 15
32 20 200 30 266 15 293 12 396 -35 53 -24 113 -44 147 -48 48 -6 160 4 245
22 l24 5 -21 -30 c-66 -92 -153 -142 -248 -142 -58 -1 -83 7 -218 65 -73 31
-115 34 -115 8 0 -32 34 -53 160 -98 137 -50 190 -55 275 -25 30 11 75 34 101
52 51 37 134 141 134 168 0 11 23 28 68 50 37 18 83 46 102 61 31 26 43 29
103 30 37 0 67 -2 67 -3z m210 -39 c-1 -87 -19 -221 -35 -244 -32 -49 -38 -30
-33 106 4 119 7 132 28 155 33 35 40 31 40 -17z m-127 -199 c-5 -109 -9 -141
-24 -160 -10 -13 -20 -21 -23 -18 -3 2 -1 36 5 74 16 107 -4 192 -37 164 -10
-8 -14 -36 -14 -88 0 -42 -7 -98 -15 -125 -8 -27 -15 -61 -15 -76 0 -18 -7
-30 -22 -37 -13 -6 -58 -40 -102 -76 -121 -101 -183 -124 -376 -134 -101 -5
-109 -4 -210 30 -58 19 -123 38 -145 42 -79 13 -75 8 -75 97 0 69 2 79 16 74
9 -3 24 -6 33 -6 15 0 19 -12 25 -62 6 -66 24 -95 50 -85 12 5 16 21 16 68 l0
61 43 -6 c23 -3 46 -5 50 -5 4 -1 5 -27 1 -59 -5 -47 -3 -62 11 -75 35 -35 50
-15 50 67 l0 60 110 22 c192 38 271 79 344 178 22 29 60 70 84 90 63 52 209
138 218 129 4 -5 5 -69 2 -144z m-1692 14 c-1 -38 -4 -69 -6 -71 -1 -1 -28 7
-59 20 -56 23 -56 23 -56 66 0 41 1 42 33 43 17 1 43 4 57 8 14 4 27 6 29 4 2
-1 3 -33 2 -70z m130 11 c30 -20 97 -56 149 -80 52 -25 116 -58 142 -75 47
-31 48 -32 48 -84 0 -55 17 -82 45 -71 10 4 15 19 15 51 0 49 4 52 55 31 33
-14 35 -18 35 -63 0 -99 2 -98 -118 -41 -255 120 -350 166 -389 191 l-43 27 0
75 c0 41 2 75 4 75 2 0 28 -16 57 -36z"/>
<path d="M2060 4021 c-30 -10 -125 -47 -210 -83 -85 -37 -182 -74 -215 -83
-94 -27 -117 -42 -113 -72 2 -14 10 -31 19 -36 27 -17 164 15 291 68 150 62
273 110 328 126 37 12 46 19 48 41 2 18 -4 31 -20 42 -28 20 -59 20 -128 -3z"/>
<path d="M2290 3749 c-187 -73 -656 -230 -759 -254 -100 -24 -134 -60 -94
-100 13 -14 29 -16 72 -12 95 9 900 283 979 333 22 14 29 48 14 71 -18 29 -59
22 -212 -38z"/>
<path d="M900 3679 c-129 -77 -209 -235 -210 -411 0 -49 4 -62 29 -91 16 -18
53 -46 82 -62 l52 -28 19 23 c10 12 18 25 18 29 0 3 -21 14 -48 23 -26 10 -61
31 -77 48 l-29 30 12 86 c16 124 47 184 139 271 51 49 74 77 70 88 -8 20 -15
19 -57 -6z"/>
<path d="M2745 3511 c-27 -11 -88 -35 -135 -55 -47 -19 -215 -71 -375 -116
-159 -45 -301 -89 -315 -99 -33 -24 -38 -66 -10 -81 27 -15 82 -6 185 31 44
15 150 46 235 69 255 67 522 163 542 194 22 33 -6 76 -50 76 -15 -1 -49 -9
-77 -19z"/>
<path d="M3225 3244 c-60 -25 -285 -104 -500 -176 -214 -72 -398 -138 -407
-146 -26 -22 -23 -60 6 -73 32 -15 99 0 256 57 339 124 435 157 556 194 247
75 314 120 256 173 -27 25 -45 21 -167 -29z"/>
<path d="M976 3164 c-8 -22 1 -34 27 -34 31 0 51 15 44 34 -8 21 -63 21 -71 0z"/>
<path d="M1634 2988 c-10 -16 50 -68 200 -172 69 -48 164 -123 213 -167 48
-44 124 -105 168 -137 44 -31 110 -88 147 -126 47 -47 73 -66 84 -62 8 3 18 6
20 6 10 0 -30 64 -64 102 -20 23 -107 94 -192 160 -85 65 -200 157 -255 204
-114 98 -267 204 -295 204 -10 0 -22 -5 -26 -12z"/>
<path d="M3470 2933 c-120 -51 -253 -94 -495 -158 -115 -31 -234 -67 -262 -80
-46 -21 -53 -28 -53 -53 0 -62 50 -66 183 -13 39 16 155 49 257 74 190 47 412
120 484 160 50 27 60 66 24 91 -31 22 -41 21 -138 -21z"/>
<path d="M3840 2644 c-52 -14 -189 -56 -305 -94 -115 -38 -297 -94 -404 -125
-207 -60 -223 -66 -258 -98 -39 -35 -24 -77 27 -77 14 0 66 14 116 30 149 51
713 221 817 246 103 25 125 34 151 60 22 21 20 61 -3 74 -26 13 -31 13 -141
-16z"/>
<path d="M2594 2275 c-9 -22 3 -46 20 -39 24 9 27 33 5 44 -15 9 -21 7 -25 -5z"/>
<path d="M3515 2254 c-38 -15 -126 -45 -195 -69 -144 -48 -169 -61 -176 -93
-17 -63 52 -67 208 -11 152 55 302 109 304 109 6 0 12 45 8 55 -5 12 -55 36
-73 35 -3 0 -37 -12 -76 -26z"/>
<path d="M2825 2070 c-14 -23 11 -48 108 -112 310 -203 552 -314 552 -254 0
14 -27 31 -117 71 -131 59 -317 164 -409 232 -72 53 -125 78 -134 63z"/>
<path d="M4396 1603 c-20 -38 -55 -90 -79 -115 -38 -42 -48 -48 -106 -57 -71
-12 -87 -21 -77 -46 5 -14 14 -16 44 -11 20 3 56 9 80 12 58 9 119 65 161 147
34 67 45 127 24 134 -6 2 -28 -27 -47 -64z"/>
<path d="M2907 1071 c-6 -23 0 -31 24 -31 22 0 31 13 23 34 -9 22 -41 20 -47
-3z"/>
<path d="M835 4203 c-57 -109 -168 -229 -264 -287 -44 -26 -95 -51 -112 -55
-39 -8 -61 -37 -39 -51 26 -17 55 -11 128 25 77 39 198 144 256 223 44 61 96
164 96 191 0 41 -29 20 -65 -46z"/>
<path d="M644 4157 c-11 -7 -42 -30 -68 -52 -26 -22 -61 -52 -78 -66 -20 -16
-28 -30 -23 -38 19 -31 118 21 189 99 30 33 35 44 25 56 -14 17 -18 17 -45 1z"/>
<path d="M3295 4060 c-14 -23 44 -93 154 -187 251 -215 380 -293 626 -382 61
-21 131 -47 157 -57 38 -15 50 -16 60 -6 25 25 -8 47 -143 93 -188 64 -287
109 -384 174 -94 63 -312 243 -392 323 -53 53 -67 60 -78 42z"/>
<path d="M223 3258 c-4 -7 -10 -96 -13 -198 -5 -189 -7 -198 -52 -262 -20 -28
3 -43 38 -27 20 10 34 30 48 64 16 43 19 78 20 240 1 169 -1 190 -16 193 -9 2
-20 -3 -25 -10z"/>
<path d="M4445 3250 c-8 -13 3 -30 20 -30 11 0 25 20 25 36 0 9 -39 4 -45 -6z"/>
<path d="M4730 2895 c0 -8 18 -57 40 -108 79 -185 124 -429 101 -543 -6 -31
-8 -60 -5 -65 10 -16 43 -9 54 10 18 34 12 224 -11 334 -38 187 -120 387 -159
387 -11 0 -20 -7 -20 -15z"/>
<path d="M4910 2725 c0 -14 5 -35 11 -46 6 -11 15 -61 20 -111 9 -92 24 -138
46 -145 20 -7 25 39 13 126 -17 125 -41 195 -68 199 -18 3 -22 -1 -22 -23z"/>
<path d="M136 1968 c-34 -130 89 -386 253 -522 101 -84 221 -139 266 -122 26
10 0 44 -43 55 -90 25 -229 130 -296 225 -73 103 -121 221 -135 329 -7 57 -33
77 -45 35z"/>
<path d="M82 1718 c-18 -18 -15 -37 17 -103 45 -97 188 -212 212 -173 14 21
11 27 -28 52 -61 39 -110 96 -143 169 -33 70 -38 75 -58 55z"/>
<path d="M972 1358 c-7 -7 -12 -19 -12 -27 0 -13 14 -16 68 -18 89 -2 178 -26
276 -74 92 -45 139 -51 134 -18 -2 17 -28 32 -118 71 -63 27 -140 56 -170 64
-66 17 -162 18 -178 2z"/>
<path d="M2054 865 c-8 -19 9 -39 50 -63 17 -10 63 -37 102 -60 70 -42 107
-51 119 -32 11 18 -13 37 -104 86 -47 26 -98 55 -113 66 -32 22 -47 23 -54 3z"/>
<path d="M3903 436 c-116 -88 -226 -133 -389 -161 -139 -24 -259 -7 -376 51
-54 27 -98 31 -98 10 0 -24 25 -42 102 -74 146 -61 295 -66 478 -17 181 49
390 170 390 226 0 32 -32 22 -107 -35z"/>
<path d="M3530 114 c-53 -9 -114 -12 -162 -8 -75 6 -87 2 -70 -22 26 -39 175
-46 305 -15 87 21 92 24 84 46 -8 18 -39 18 -157 -1z"/>
</g>
</svg>
